<mxfile host="app.diagrams.net" agent="Mozilla/5.0 (Windows NT 10.0; Win64; x64; rv:130.0) Gecko/20100101 Firefox/130.0" version="24.7.16">
  <diagram name="Page-1" id="sB4q3lxUV-oYPPi_GrSm">
    <mxGraphModel dx="2074" dy="1078" grid="1" gridSize="10" guides="1" tooltips="1" connect="1" arrows="1" fold="1" page="1" pageScale="1" pageWidth="827" pageHeight="1169" background="#ffffff" math="0" shadow="0">
      <root>
        <mxCell id="0" />
        <mxCell id="1" parent="0" />
        <mxCell id="lluSa31ZkS2Y-ABIkXS--20" value="" style="rounded=1;whiteSpace=wrap;html=1;fillColor=none;" vertex="1" parent="1">
          <mxGeometry x="130" y="450" width="530" height="300" as="geometry" />
        </mxCell>
        <mxCell id="lluSa31ZkS2Y-ABIkXS--18" value="" style="edgeStyle=orthogonalEdgeStyle;rounded=0;orthogonalLoop=1;jettySize=auto;html=1;flowAnimation=1;" edge="1" parent="1" source="lluSa31ZkS2Y-ABIkXS--1" target="lluSa31ZkS2Y-ABIkXS--6">
          <mxGeometry relative="1" as="geometry" />
        </mxCell>
        <mxCell id="lluSa31ZkS2Y-ABIkXS--1" value="Pipe &lt;br&gt;Source: DynamoDB&lt;br&gt;Target: EventBus" style="sketch=0;outlineConnect=0;fontColor=#232F3E;gradientColor=none;fillColor=#E7157B;strokeColor=none;dashed=0;verticalLabelPosition=bottom;verticalAlign=top;align=center;html=1;fontSize=12;fontStyle=0;aspect=fixed;pointerEvents=1;shape=mxgraph.aws4.eventbridge_pipes;" vertex="1" parent="1">
          <mxGeometry x="190" y="507" width="78" height="78" as="geometry" />
        </mxCell>
        <mxCell id="lluSa31ZkS2Y-ABIkXS--19" value="" style="edgeStyle=orthogonalEdgeStyle;rounded=0;orthogonalLoop=1;jettySize=auto;html=1;flowAnimation=1;" edge="1" parent="1" source="lluSa31ZkS2Y-ABIkXS--2" target="lluSa31ZkS2Y-ABIkXS--1">
          <mxGeometry relative="1" as="geometry" />
        </mxCell>
        <mxCell id="lluSa31ZkS2Y-ABIkXS--2" value="DynamoDB Table" style="sketch=0;points=[[0,0,0],[0.25,0,0],[0.5,0,0],[0.75,0,0],[1,0,0],[0,1,0],[0.25,1,0],[0.5,1,0],[0.75,1,0],[1,1,0],[0,0.25,0],[0,0.5,0],[0,0.75,0],[1,0.25,0],[1,0.5,0],[1,0.75,0]];outlineConnect=0;fontColor=#232F3E;fillColor=#C925D1;strokeColor=#ffffff;dashed=0;verticalLabelPosition=bottom;verticalAlign=top;align=center;html=1;fontSize=12;fontStyle=0;aspect=fixed;shape=mxgraph.aws4.resourceIcon;resIcon=mxgraph.aws4.dynamodb;" vertex="1" parent="1">
          <mxGeometry x="10" y="507" width="78" height="78" as="geometry" />
        </mxCell>
        <mxCell id="lluSa31ZkS2Y-ABIkXS--9" value="" style="edgeStyle=orthogonalEdgeStyle;rounded=0;orthogonalLoop=1;jettySize=auto;html=1;flowAnimation=1;" edge="1" parent="1" source="lluSa31ZkS2Y-ABIkXS--6" target="lluSa31ZkS2Y-ABIkXS--3">
          <mxGeometry relative="1" as="geometry" />
        </mxCell>
        <mxCell id="lluSa31ZkS2Y-ABIkXS--11" value="" style="edgeStyle=orthogonalEdgeStyle;rounded=0;orthogonalLoop=1;jettySize=auto;html=1;flowAnimation=1;" edge="1" parent="1" source="lluSa31ZkS2Y-ABIkXS--3" target="lluSa31ZkS2Y-ABIkXS--4">
          <mxGeometry relative="1" as="geometry" />
        </mxCell>
        <mxCell id="lluSa31ZkS2Y-ABIkXS--3" value="Unmarshall records/items" style="sketch=0;points=[[0,0,0],[0.25,0,0],[0.5,0,0],[0.75,0,0],[1,0,0],[0,1,0],[0.25,1,0],[0.5,1,0],[0.75,1,0],[1,1,0],[0,0.25,0],[0,0.5,0],[0,0.75,0],[1,0.25,0],[1,0.5,0],[1,0.75,0]];outlineConnect=0;fontColor=#232F3E;fillColor=#ED7100;strokeColor=#ffffff;dashed=0;verticalLabelPosition=bottom;verticalAlign=top;align=center;html=1;fontSize=12;fontStyle=0;aspect=fixed;shape=mxgraph.aws4.resourceIcon;resIcon=mxgraph.aws4.lambda;" vertex="1" parent="1">
          <mxGeometry x="490" y="583.5" width="78" height="78" as="geometry" />
        </mxCell>
        <mxCell id="lluSa31ZkS2Y-ABIkXS--13" value="" style="edgeStyle=orthogonalEdgeStyle;rounded=0;orthogonalLoop=1;jettySize=auto;html=1;flowAnimation=1;" edge="1" parent="1" source="lluSa31ZkS2Y-ABIkXS--4" target="lluSa31ZkS2Y-ABIkXS--12">
          <mxGeometry relative="1" as="geometry" />
        </mxCell>
        <mxCell id="lluSa31ZkS2Y-ABIkXS--4" value="EventBus" style="sketch=0;outlineConnect=0;fontColor=#232F3E;gradientColor=none;fillColor=#E7157B;strokeColor=none;dashed=0;verticalLabelPosition=bottom;verticalAlign=top;align=center;html=1;fontSize=12;fontStyle=0;aspect=fixed;pointerEvents=1;shape=mxgraph.aws4.eventbridge_default_event_bus_resource;" vertex="1" parent="1">
          <mxGeometry x="672" y="519.5" width="78" height="53" as="geometry" />
        </mxCell>
        <mxCell id="lluSa31ZkS2Y-ABIkXS--5" value="Log group" style="sketch=0;points=[[0,0,0],[0.25,0,0],[0.5,0,0],[0.75,0,0],[1,0,0],[0,1,0],[0.25,1,0],[0.5,1,0],[0.75,1,0],[1,1,0],[0,0.25,0],[0,0.5,0],[0,0.75,0],[1,0.25,0],[1,0.5,0],[1,0.75,0]];points=[[0,0,0],[0.25,0,0],[0.5,0,0],[0.75,0,0],[1,0,0],[0,1,0],[0.25,1,0],[0.5,1,0],[0.75,1,0],[1,1,0],[0,0.25,0],[0,0.5,0],[0,0.75,0],[1,0.25,0],[1,0.5,0],[1,0.75,0]];outlineConnect=0;fontColor=#232F3E;fillColor=#E7157B;strokeColor=#ffffff;dashed=0;verticalLabelPosition=bottom;verticalAlign=top;align=center;html=1;fontSize=12;fontStyle=0;aspect=fixed;shape=mxgraph.aws4.resourceIcon;resIcon=mxgraph.aws4.cloudwatch_2;" vertex="1" parent="1">
          <mxGeometry x="970" y="507" width="78" height="78" as="geometry" />
        </mxCell>
        <mxCell id="lluSa31ZkS2Y-ABIkXS--6" value="&lt;font color=&quot;#232f3e&quot;&gt;Filter to process only&lt;br&gt;MODIFY/INSERT&lt;/font&gt;" style="sketch=0;aspect=fixed;pointerEvents=1;shadow=0;dashed=0;html=1;strokeColor=none;labelPosition=center;verticalLabelPosition=bottom;verticalAlign=top;align=center;fillColor=#00188D;shape=mxgraph.mscae.enterprise.filter" vertex="1" parent="1">
          <mxGeometry x="364" y="600" width="50" height="45" as="geometry" />
        </mxCell>
        <mxCell id="lluSa31ZkS2Y-ABIkXS--14" value="" style="edgeStyle=orthogonalEdgeStyle;rounded=0;orthogonalLoop=1;jettySize=auto;html=1;flowAnimation=1;" edge="1" parent="1" source="lluSa31ZkS2Y-ABIkXS--12" target="lluSa31ZkS2Y-ABIkXS--5">
          <mxGeometry relative="1" as="geometry" />
        </mxCell>
        <mxCell id="lluSa31ZkS2Y-ABIkXS--12" value="Rule: Publish Event to Cloudwatch" style="sketch=0;outlineConnect=0;fontColor=#232F3E;gradientColor=none;fillColor=#E7157B;strokeColor=none;dashed=0;verticalLabelPosition=bottom;verticalAlign=top;align=center;html=1;fontSize=12;fontStyle=0;aspect=fixed;pointerEvents=1;shape=mxgraph.aws4.rule_3;" vertex="1" parent="1">
          <mxGeometry x="820" y="512" width="78" height="68" as="geometry" />
        </mxCell>
      </root>
    </mxGraphModel>
  </diagram>
</mxfile>
